<?xml version="1.0" encoding="UTF-8" standalone="no"?>
<!DOCTYPE svg PUBLIC "-//W3C//DTD SVG 1.1//EN"
 "http://www.w3.org/Graphics/SVG/1.1/DTD/svg11.dtd">
<!-- Generated by graphviz version 2.47.3 (20210619.1520)
 -->
<!-- Title: dependencies Pages: 1 -->
<svg width="370pt" height="250pt"
 viewBox="0.00 0.00 370.00 249.80" xmlns="http://www.w3.org/2000/svg" xmlns:xlink="http://www.w3.org/1999/xlink">
<g id="graph0" class="graph" transform="scale(1 1) rotate(0) translate(4 245.8)">
<title>dependencies</title>
<polygon fill="white" stroke="transparent" points="-4,4 -4,-245.8 366,-245.8 366,4 -4,4"/>
<text text-anchor="middle" x="181" y="-8.2" font-family="sans-serif" font-size="14.00">dependencies</text>
<g id="clust1" class="cluster">
<title>cluster_AppModule</title>
<polygon fill="none" stroke="black" stroke-dasharray="1,5" points="25,-108.8 25,-233.8 151,-233.8 151,-108.8 25,-108.8"/>
</g>
<g id="clust3" class="cluster">
<title>cluster_AppModule_imports</title>
<polygon fill="none" stroke="black" points="33,-116.8 33,-168.8 143,-168.8 143,-116.8 33,-116.8"/>
</g>
<g id="clust7" class="cluster">
<title>cluster_GuideModule</title>
<polygon fill="none" stroke="black" stroke-dasharray="1,5" points="8,-32.8 8,-100.8 168,-100.8 168,-32.8 8,-32.8"/>
</g>
<g id="clust12" class="cluster">
<title>cluster_GuideModule_providers</title>
<polygon fill="none" stroke="black" points="16,-40.8 16,-92.8 160,-92.8 160,-40.8 16,-40.8"/>
</g>
<g id="clust13" class="cluster">
<title>cluster_TravelerModule</title>
<polygon fill="none" stroke="black" stroke-dasharray="1,5" points="176,-32.8 176,-168.8 354,-168.8 354,-32.8 176,-32.8"/>
</g>
<g id="clust18" class="cluster">
<title>cluster_TravelerModule_providers</title>
<polygon fill="none" stroke="black" points="184,-40.8 184,-92.8 346,-92.8 346,-40.8 184,-40.8"/>
</g>
<!-- GuideModule -->
<g id="node1" class="node">
<title>GuideModule</title>
<polygon fill="#8dd3c7" stroke="black" points="134.76,-160.8 131.76,-164.8 110.76,-164.8 107.76,-160.8 41.24,-160.8 41.24,-124.8 134.76,-124.8 134.76,-160.8"/>
<text text-anchor="middle" x="88" y="-138.6" font-family="Times,serif" font-size="14.00">GuideModule</text>
</g>
<!-- AppModule -->
<g id="node2" class="node">
<title>AppModule</title>
<polygon fill="#8dd3c7" stroke="black" points="129.66,-225.8 126.66,-229.8 105.66,-229.8 102.66,-225.8 46.34,-225.8 46.34,-189.8 129.66,-189.8 129.66,-225.8"/>
<text text-anchor="middle" x="88" y="-203.6" font-family="Times,serif" font-size="14.00">AppModule</text>
</g>
<!-- GuideModule&#45;&gt;AppModule -->
<g id="edge1" class="edge">
<title>GuideModule&#45;&gt;AppModule</title>
<path fill="none" stroke="black" d="M88,-160.91C88,-160.91 88,-179.79 88,-179.79"/>
<polygon fill="black" stroke="black" points="84.5,-179.79 88,-189.79 91.5,-179.79 84.5,-179.79"/>
</g>
<!-- GuideService -->
<g id="node3" class="node">
<title>GuideService</title>
<ellipse fill="#fdb462" stroke="black" cx="88" cy="-66.8" rx="63.68" ry="18"/>
<text text-anchor="middle" x="88" y="-62.6" font-family="Times,serif" font-size="14.00">GuideService</text>
</g>
<!-- GuideService&#45;&gt;GuideModule -->
<g id="edge2" class="edge">
<title>GuideService&#45;&gt;GuideModule</title>
<path fill="none" stroke="black" d="M88,-84.81C88,-84.81 88,-114.65 88,-114.65"/>
<polygon fill="black" stroke="black" points="84.5,-114.65 88,-124.65 91.5,-114.65 84.5,-114.65"/>
</g>
<!-- TravelerService -->
<g id="node4" class="node">
<title>TravelerService</title>
<ellipse fill="#fdb462" stroke="black" cx="265" cy="-66.8" rx="72.89" ry="18"/>
<text text-anchor="middle" x="265" y="-62.6" font-family="Times,serif" font-size="14.00">TravelerService</text>
</g>
<!-- TravelerModule -->
<g id="node5" class="node">
<title>TravelerModule</title>
<polygon fill="#8dd3c7" stroke="black" points="318.46,-160.8 315.46,-164.8 294.46,-164.8 291.46,-160.8 211.54,-160.8 211.54,-124.8 318.46,-124.8 318.46,-160.8"/>
<text text-anchor="middle" x="265" y="-138.6" font-family="Times,serif" font-size="14.00">TravelerModule</text>
</g>
<!-- TravelerService&#45;&gt;TravelerModule -->
<g id="edge3" class="edge">
<title>TravelerService&#45;&gt;TravelerModule</title>
<path fill="none" stroke="black" d="M265,-84.81C265,-84.81 265,-114.65 265,-114.65"/>
<polygon fill="black" stroke="black" points="261.5,-114.65 265,-124.65 268.5,-114.65 261.5,-114.65"/>
</g>
</g>
</svg>
